<?xml version="1.0" standalone="no"?><!DOCTYPE svg PUBLIC "-//W3C//DTD SVG 1.1//EN" "http://www.w3.org/Graphics/SVG/1.1/DTD/svg11.dtd"><svg t="1657779190055" class="icon" viewBox="0 0 1024 1024" version="1.1" xmlns="http://www.w3.org/2000/svg" p-id="31859" xmlns:xlink="http://www.w3.org/1999/xlink" width="200" height="200"><defs><style type="text/css">@font-face { font-family: feedback-iconfont; src: url("//at.alicdn.com/t/font_1031158_u69w8yhxdu.woff2?t=1630033759944") format("woff2"), url("//at.alicdn.com/t/font_1031158_u69w8yhxdu.woff?t=1630033759944") format("woff"), url("//at.alicdn.com/t/font_1031158_u69w8yhxdu.ttf?t=1630033759944") format("truetype"); }
</style></defs><path d="M564.352484 386.978714H71.006413a22.378321 22.378321 0 1 1 0-44.756642h493.346071c63.074896 0 114.39478-51.319884 114.39478-114.397977S627.42738 113.426118 564.352484 113.426118a22.378321 22.378321 0 1 1 0-44.756642c87.754987 0 159.151422 71.396435 159.151422 159.154619s-71.396435 159.154619-159.151422 159.154619z" fill="#4F46A3" p-id="31860"></path><path d="M815.916781 498.790397h-493.346071a22.378321 22.378321 0 1 1 0-44.756642h493.346071c63.078093 0 114.397977-51.319884 114.397977-114.404371 0-63.078093-51.319884-114.397977-114.397977-114.397977a22.378321 22.378321 0 1 1 0-44.756642c87.758184 0 159.154619 71.396435 159.154619 159.154619 0.003197 87.761381-71.393238 159.161013-159.154619 159.161013zM704.111492 954.051762a22.378321 22.378321 0 1 1 0-44.756642c63.078093 0 114.397977-51.319884 114.397977-114.401174 0-63.078093-51.319884-114.397977-114.397977-114.397976H210.762224a22.378321 22.378321 0 1 1 0-44.756642h493.346071c87.758184 0 159.154619 71.396435 159.154619 159.154618s-71.393238 159.157816-159.151422 159.157816z" fill="#4F46A3" p-id="31861"></path><path d="M572.226456 313.449945H78.880385a22.378321 22.378321 0 1 1 0-44.756642h493.346071a22.378321 22.378321 0 1 1 0 44.756642z" fill="#5FCEFF" p-id="31862"></path><path d="M815.191084 588.383603h-493.346071a22.378321 22.378321 0 1 1 0-44.756642h493.346071a22.378321 22.378321 0 1 1 0 44.756642z" fill="#FF4893" p-id="31863"></path></svg>